#!OML:ASF H:\Male1\Project 1\Capture day 1\Session 1\Male1.ASF
:FULLY-SPECIFIED
:DEGREES
480
root 15.1026 15.4226 3.49202 177.478 -30.4961 180.696
lowerback 8.47982 0.401965 -2.16915
upperback 3.14427 0.137015 -1.26951
thorax -1.50463 -0.0193027 -0.101074
lowerneck -4.9706 4.49256 8.67078
upperneck 2.75871 5.68724 -6.36127
head 2.27058 2.79113 -3.4322
rclavicle -1.12214e-013 5.56597e-014
rhumerus -72.5399 32.1118 -85.5124
rradius 93.7284
rwrist -31.0897
rhand -33.4888 24.7587
rfingers 7.12502
rthumb -6.68613 -5.11571
lclavicle -1.12214e-013 5.56597e-014
lhumerus -91.5579 -17.9942 105.984
lradius 106.023
lwrist 33.81
lhand -32.4447 1.99823
lfingers 7.12502
lthumb -5.67808 31.9022
rfemur -3.56381 13.9146 22.9188
rtibia 23.272
rfoot -27.2439 -29.4338
rtoes -19.4859
lfemur -3.33433 -18.0541 -20.831
ltibia 24.9981
lfoot -25.9435 27.9852
ltoes -0.503024
481
root 15.1013 15.4205 3.48364 177.619 -30.6624 180.272
lowerback 8.49935 0.439166 -2.4013
upperback 3.22471 0.159421 -1.32796
thorax -1.43314 -0.0135488 -0.033172
lowerneck -5.16155 4.50333 8.69143
upperneck 2.75888 5.68925 -6.46645
head 2.31183 2.78662 -3.47004
rclavicle -1.14102e-013 -6.36111e-015
rhumerus -74.8253 31.8361 -89.2993
rradius 94.0266
rwrist -31.0267
rhand -33.3082 25.4771
rfingers 7.12502
rthumb -6.51175 -4.40276
lclavicle -1.14102e-013 -6.36111e-015
lhumerus -91.5627 -18.3621 106.16
lradius 106.05
lwrist 34.4765
lhand -32.7194 2.06178
lfingers 7.12502
lthumb -5.94336 31.9584
rfemur -3.57031 13.7735 22.548
rtibia 23.5795
rfoot -27.6 -29.2989
rtoes -19.0823
lfemur -3.07907 -18.1142 -21.2696
ltibia 24.6975
lfoot -25.3755 28.2346
ltoes -2.02845
482
root 15.1027 15.4194 3.47735 177.637 -30.7531 180.106
lowerback 8.55815 0.486917 -2.43285
upperback 3.28091 0.214379 -1.33362
thorax -1.40858 0.010994 -0.0266958
lowerneck -5.33321 4.54705 8.80089
upperneck 2.74623 5.72972 -6.55847
head 2.35176 2.80292 -3.51885
rclavicle 1.29608e-013 -4.77083e-015
rhumerus -76.9353 31.3684 -92.9677
rradius 94.3155
rwrist -31.2206
rhand -33.3441 26.5168
rfingers 7.12502
rthumb -6.5464 -3.36199
lclavicle 1.29608e-013 -4.77083e-015
lhumerus -91.4758 -18.5033 106.34
lradius 105.986
lwrist 34.9282
lhand -32.8316 2.61773
lfingers 7.12502
lthumb -6.0516 32.5113
rfemur -3.58894 13.648 22.4137
rtibia 23.8149
rfoot -27.8791 -29.1786
rtoes -18.7622
lfemur -2.89921 -18.0401 -21.4281
ltibia 24.4852
lfoot -24.7251 28.4185
ltoes -3.87068
483
root 15.1045 15.4177 3.47222 177.573 -30.8046 180.061
lowerback 8.64326 0.549534 -2.36386
upperback 3.33661 0.297959 -1.30286
thorax -1.39926 0.0507154 -0.0420209
lowerneck -5.49623 4.56601 8.92238
upperneck 2.79237 5.73994 -6.68033
head 2.40932 2.80417 -3.58238
rclavicle -2.75317e-014 -3.97569e-015
rhumerus -78.6788 30.8222 -96.2755
rradius 94.5715
rwrist -31.9759
rhand -32.9582 27.2872
rfingers 7.12502
rthumb -6.17387 -2.60286
lclavicle -2.75317e-014 -3.97569e-015
lhumerus -91.4238 -18.4334 106.585
lradius 105.863
lwrist 34.9876
lhand -33.0531 3.02769
lfingers 7.12502
lthumb -6.26546 32.915
rfemur -3.52199 13.5466 22.4015
rtibia 23.9131
rfoot -27.8511 -29.1581
rtoes -19.0809
lfemur -2.75752 -18.0059 -21.4821
ltibia 24.403
lfoot -24.5355 28.4212
ltoes -4.29638
484
root 15.1067 15.4166 3.46899 177.549 -30.7263 180.064
lowerback 8.68338 0.65336 -2.23096
upperback 3.38085 0.444309 -1.27244
thorax -1.37734 0.122736 -0.0995564
lowerneck -5.6583 4.50512 8.92001
upperneck 2.82358 5.6462 -6.68848
head 2.44218 2.75467 -3.58737
rclavicle -1.65289e-013 -9.93923e-015
rhumerus -80.1533 30.1635 -99.3753
rradius 94.8405
rwrist -32.5281
rhand -32.654 27.4144
rfingers 7.12502
rthumb -5.88018 -2.48403
lclavicle -1.65289e-013 -9.93923e-015
lhumerus -91.4641 -18.3813 106.861
lradius 105.788
lwrist 34.8234
lhand -33.4558 3.34047
lfingers 7.12502
lthumb -6.65423 33.2159
rfemur -3.5033 13.5763 22.4169
rtibia 23.9258
rfoot -27.9494 -29.0307
rtoes -18.7086
lfemur -2.70553 -17.9764 -21.4826
ltibia 24.3911
lfoot -24.839 28.289
ltoes -3.25327
485
root 15.1121 15.4219 3.46596 177.736 -30.1068 180.143
lowerback 8.64796 0.866768 -2.23739
upperback 3.21603 0.741238 -1.14443
thorax -1.534 0.278134 0.00640592
lowerneck -5.61393 4.47552 8.85944
upperneck 2.84021 5.61448 -6.67048
head 2.43334 2.7394 -3.57159
rclavicle 2.49475e-014 -2.18663e-014
rhumerus -81.7158 29.6184 -102.481
rradius 95.0662
rwrist -32.4867
rhand -32.6429 27.2563
rfingers 7.12502
rthumb -5.86947 -2.64237
lclavicle 2.49475e-014 -2.18663e-014
lhumerus -91.6311 -18.232 107.131
lradius 105.752
lwrist 34.7224
lhand -33.8535 3.32094
lfingers 7.12502
lthumb -7.03815 33.1839
rfemur -3.85799 13.7772 22.4143
rtibia 23.9253
rfoot -27.7303 -28.7224
rtoes -18.4071
lfemur -2.88891 -17.6443 -21.3332
ltibia 24.439
lfoot -25.257 28.3624
ltoes -2.38054
486
root 15.1145 15.4255 3.46348 177.813 -29.701 180.246
lowerback 8.5225 1.03296 -2.07392
upperback 3.21318 0.98519 -1.05517
thorax -1.47055 0.4014 -0.0155329
lowerneck -5.62643 4.4395 8.77641
upperneck 2.76 5.5672 -6.64688
head 2.39996 2.71429 -3.54936
rclavicle -3.34952e-014 -4.37326e-015
rhumerus -82.7839 29.0184 -105.21
rradius 95.1465
rwrist -32.6456
rhand -32.5589 27.379
rfingers 7.12502
rthumb -5.78839 -2.52191
lclavicle -3.34952e-014 -4.37326e-015
lhumerus -91.5299 -18.2045 107.314
lradius 105.684
lwrist 34.7838
lhand -34.3678 2.64766
lfingers 7.12502
lthumb -7.53459 32.4935
rfemur -4.06997 13.8772 22.4609
rtibia 23.9396
rfoot -27.608 -28.4683
rtoes -18.0998
lfemur -2.97313 -17.4522 -21.2003
ltibia 24.4581
lfoot -25.6411 28.3823
ltoes -1.50232
487
root 15.1009 15.411 3.46615 177.214 -30.8786 180.217
lowerback 9.14158 0.708175 -1.68049
upperback 3.41026 0.55507 -1.01263
thorax -1.59822 0.18053 -0.155186
lowerneck -5.61295 4.36589 8.66258
upperneck 2.71449 5.47722 -6.66984
head 2.37064 2.66705 -3.54021
rclavicle -3.11098e-014 -7.15625e-015
rhumerus -83.7806 28.4163 -107.627
rradius 95.2462
rwrist -33.152
rhand -32.4997 27.4068
rfingers 7.12502
rthumb -5.7312 -2.49568
lclavicle -3.11098e-014 -7.15625e-015
lhumerus -91.4555 -18.0369 107.67
lradius 105.59
lwrist 34.8621
lhand -35.084 2.14708
lfingers 7.12502
lthumb -8.22587 31.9669
rfemur -3.17851 13.3743 22.598
rtibia 23.9386
rfoot -28.5393 -28.666
rtoes -16.9263
lfemur -2.46544 -18.005 -21.4358
ltibia 24.4922
lfoot -25.3533 27.909
ltoes -1.52751
488
root 15.1144 15.4138 3.45888 177.404 -30.1747 180.154
lowerback 8.86218 1.09163 -1.73733
upperback 3.48604 1.06594 -0.990333
thorax -1.37232 0.432143 -0.14818
lowerneck -5.73873 4.23535 8.56441
upperneck 2.57716 5.29027 -6.58878
head 2.3244 2.57119 -3.50029
rclavicle -1.9133e-014 3.57812e-015
rhumerus -84.3499 27.7068 -109.801
rradius 95.3043
rwrist -33.4389
rhand -32.3027 27.0411
rfingers 7.12502
rthumb -5.54097 -2.86651
lclavicle -1.9133e-014 3.57812e-015
lhumerus -91.2628 -18.5085 107.935
lradius 105.547
lwrist 35.2157
lhand -35.9226 2.18712
lfingers 7.12502
lthumb -9.03508 31.9736
rfemur -3.46993 13.7843 22.5762
rtibia 24.0018
rfoot -27.9437 -28.8033
rtoes -18.3048
lfemur -2.54539 -17.266 -21.3364
ltibia 24.4649
lfoot -25.1744 27.9584
ltoes -2.39132
489
root 15.0914 15.4166 3.46684 177.613 -31.2675 180.012
lowerback 8.70094 0.686099 -1.28771
upperback 3.51378 0.570398 -1.08329
thorax -1.2441 0.189508 -0.445778
lowerneck -5.75966 4.23481 8.60108
upperneck 2.51158 5.28253 -6.58686
head 2.30699 2.56685 -3.50673
rclavicle 3.35449e-014 3.97569e-015
rhumerus -85.0582 27.3538 -112.086
rradius 95.2856
rwrist -33.4512
rhand -32.7172 26.5245
rfingers 7.12502
rthumb -5.94115 -3.37216
lclavicle 3.35449e-014 3.97569e-015
lhumerus -91.1621 -18.6153 108.069
lradius 105.546
lwrist 35.5135
lhand -36.7112 2.36025
lfingers 7.12502
lthumb -9.79601 32.1124
rfemur -3.54001 13.0019 22.3047
rtibia 24.0975
rfoot -28.2615 -28.9844
rtoes -18.4097
lfemur -2.84419 -17.969 -21.5
ltibia 24.4116
lfoot -24.5405 27.8793
ltoes -3.43496
490
root 15.0961 15.4118 3.46155 177.592 -30.9411 179.778
lowerback 8.79585 0.845956 -1.45918
upperback 3.57721 0.757951 -1.12827
thorax -1.23283 0.278107 -0.414627
lowerneck -5.81877 4.23529 8.74208
upperneck 2.53372 5.2681 -6.57464
head 2.32929 2.56103 -3.52975
rclavicle -3.61788e-014 1.78906e-014
rhumerus -85.4993 26.858 -113.935
rradius 95.3088
rwrist -34.3499
rhand -34.4657 26.7452
rfingers 7.12502
rthumb -7.62909 -3.09722
lclavicle -3.61788e-014 1.78906e-014
lhumerus -91.1975 -18.3664 108.252
lradius 105.53
lwrist 35.4033
lhand -37.257 2.46636
lfingers 7.12502
lthumb -10.3225 32.193
rfemur -3.4287 13.2732 22.1613
rtibia 24.1888
rfoot -28.3553 -28.8471
rtoes -18.318
lfemur -2.53309 -17.7928 -21.7617
ltibia 24.2925
lfoot -25.0855 27.7424
ltoes -1.78578
491
root 15.0988 15.4109 3.45972 177.595 -30.6945 179.675
lowerback 8.86715 0.963451 -1.48219
upperback 3.58966 0.907827 -1.12502
thorax -1.26014 0.351536 -0.413806
lowerneck -5.91193 4.25345 8.67766
upperneck 2.60686 5.28459 -6.40546
head 2.36284 2.57191 -3.45575
rclavicle -3.27995e-015 -2.66371e-014
rhumerus -85.6606 26.2864 -115.075
rradius 95.5524
rwrist -37.0074
rhand -36.9863 28.4195
rfingers 7.12502
rthumb -10.0614 -1.31995
lclavicle -3.27995e-015 -2.66371e-014
lhumerus -91.1095 -18.6816 108.252
lradius 105.532
lwrist 35.816
lhand -37.4064 2.64551
lfingers 7.12502
lthumb -10.4667 32.365
rfemur -3.41707 13.4739 22.0981
rtibia 24.242
rfoot -28.4435 -28.7496
rtoes -18.0825
lfemur -2.37533 -17.6371 -21.8684
ltibia 24.2061
lfoot -25.1293 27.8126
ltoes -1.67245
492
root 15.0979 15.4141 3.46133 177.713 -30.5998 179.688
lowerback 8.80923 0.923535 -1.43195
upperback 3.55027 0.866476 -1.0554
thorax -1.26912 0.333338 -0.365694
lowerneck -5.90646 4.31147 8.50176
upperneck 2.57377 5.36887 -6.27011
head 2.34484 2.61476 -3.36998
rclavicle 2.77802e-014 1.35174e-014
rhumerus -85.5067 25.9572 -115.306
rradius 95.6637
rwrist -38.2116
rhand -38.3367 28.8783
rfingers 7.12502
rthumb -11.364 -0.79376
lclavicle 2.77802e-014 1.35174e-014
lhumerus -91.0721 -18.4148 108.228
lradius 105.557
lwrist 35.6525
lhand -37.4737 2.81349
lfingers 7.12502
lthumb -10.5316 32.5296
rfemur -3.61309 13.488 22.0735
rtibia 24.3114
rfoot -28.4065 -28.7223
rtoes -18.0415
lfemur -2.45717 -17.6002 -21.8157
ltibia 24.1128
lfoot -24.8195 28.0226
ltoes -2.77209
493
root 15.0951 15.4192 3.46437 177.897 -30.6264 179.681
lowerback 8.69218 0.853034 -1.34015
upperback 3.50791 0.788531 -1.04116
thorax -1.24701 0.297618 -0.393824
lowerneck -5.76516 4.26469 8.53896
upperneck 2.37761 5.31024 -6.32158
head 2.2516 2.58505 -3.39988
rclavicle 4.85532e-014 7.95139e-016
rhumerus -85.3761 25.6936 -115.332
rradius 95.7939
rwrist -38.3749
rhand -38.9755 28.6937
rfingers 7.12502
rthumb -11.9801 -0.943436
lclavicle 4.85532e-014 7.95139e-016
lhumerus -91.0191 -18.3172 108.201
lradius 105.533
lwrist 35.5032
lhand -37.8516 2.92076
lfingers 7.12502
lthumb -10.8962 32.6181
rfemur -3.81723 13.4075 21.9938
rtibia 24.2939
rfoot -28.3792 -28.6817
rtoes -17.9821
lfemur -2.68839 -17.4894 -21.7486
ltibia 24.1057
lfoot -24.763 27.9165
ltoes -2.81761
